<?xml version="1.0" encoding="utf-8"?>
<!-- Generator: Adobe Illustrator 26.2.1, SVG Export Plug-In . SVG Version: 6.00 Build 0)  -->
<svg version="1.1" id="Capa_1" xmlns="http://www.w3.org/2000/svg" xmlns:xlink="http://www.w3.org/1999/xlink" x="0px" y="0px"
	 viewBox="0 0 1280 1211" style="enable-background:new 0 0 1280 1211;" xml:space="preserve">
<style type="text/css">
	.st0{fill:#B2B2B2;}
</style>
<g transform="translate(0.000000,1211.000000) scale(0.100000,-0.100000)">
	<path class="st0" d="M253,12091c-100-34-176-103-222-201c-22-46-26-69-26-140c1-72,5-94,30-144c34-73,96-136,165-171
		c58-29,34-25,1135-209c380-64,699-118,710-121c13-3,27-20,37-47c9-24,111-284,228-578s279-704,360-910s225-571,320-810
		s239-604,320-810s225-571,320-810s239-604,320-810c277-701,488-1234,681-1720c105-267,192-495,193-507c1-17-89-91-434-359
		c-239-185-471-368-515-406c-252-218-417-493-465-778c-18-99-16-288,3-376c23-107,93-237,203-380c107-138,264-261,422-330
		c40-17,75-34,77-36c3-2-21-12-53-22c-330-103-554-453-503-786c25-160,83-278,195-397c354-377,977-277,1197,192
		c102,219,88,464-39,673c-46,76-137,172-209,219c-29,20-52,37-51,39c2,1,1231-2,2733-6c1502-5,2897-10,3100-10c350-1,369-2,345-18
		c-14-9-54-44-89-77c-302-284-301-756,2-1042c355-336,938-236,1157,197c73,145,97,314,66,465c-20,97-88,240-149,314
		c-43,52-144,141-159,141c-5,0-8,4-8,9c0,6,128,11,323,13c370,3,371,4,471,98c77,72,110,150,111,255c0,71-4,88-32,146
		c-39,79-102,140-181,177l-57,27l-1115,7c-613,5-2388,12-3945,17c-2131,6-2841,11-2876,20c-164,42-252,184-221,353
		c15,84,81,215,142,281c27,30,348,287,714,571l665,517l1078,85c593,46,1881,147,2863,224s1927,152,2100,165c173,14,338,32,365,40
		c107,30,202,126,235,235c10,36,35,198,55,360c19,162,48,403,64,535c17,132,57,465,91,740c33,275,97,793,141,1150
		c43,358,98,801,120,985c26,211,39,353,35,385c-19,164-164,297-340,311c-34,2-529,16-1101,29c-572,14-1218,29-1435,35
		c-217,5-578,14-802,20c-225,5-589,14-810,20c-222,5-587,15-813,20c-956,24-2866,70-3315,80c-267,6-513,13-547,16c-61,5-61,6-78,47
		c-10,23-84,211-165,417c-82,206-216,548-300,760s-215,545-292,740c-76,195-150,373-163,396c-29,49-90,106-142,132
		c-61,31,38,13-1324,242c-426,71-795,130-820,129C325,12109,281,12101,253,12091z M4575,8676l440-11l3-632l2-633h-334h-334l-110,278
		c-61,152-174,439-252,637s-144,363-147,368C3837,8692,4031,8691,4575,8676z M5980,8640c212-6,415-10,452-10h68v-615v-615h-615h-615
		v631v630l163-6C5522,8652,5768,8645,5980,8640z M7295,8610c237-6,490-13,563-16l132-6v-594v-594h-615h-615v610v610h53
		C6841,8620,7059,8616,7295,8610z M9458,8554c9-3,12-127,12-579v-575h-615h-615v593v592l602-13C9174,8564,9451,8557,9458,8554z
		 M10433,8530c208-6,410-10,448-10h69v-560v-560h-615h-615v575v576l168-6C9980,8542,10225,8535,10433,8530z M11958,8494
		c198-5,282-10,282-18c0-7-29-249-65-540c-36-290-65-530-65-532s-202-4-450-4h-450v557v556l233-6C11570,8503,11802,8497,11958,8494z
		 M5020,6580v-571l-61,3l-61,3l-78,195c-42,107-141,357-219,555c-79,198-145,366-148,373c-4,9,56,12,281,12h286V6580z M6500,6580
		v-570h-615h-615v570v570h615h615V6580z M7988,6583l-3-568l-612-3l-613-2v570v570h615h615L7988,6583z M9470,6580v-570h-615h-615v570
		v570h615h615V6580z M10950,6580v-570h-615h-615v570v570h615h615V6580z M12075,7118c-3-18-32-256-65-528s-62-514-65-537l-6-43h-365
		h-364v570v570h435h436L12075,7118z M5020,5738c0-19-2-20-10-8c-13,19-13,30,0,30C5016,5760,5020,5750,5020,5738z M6500,5170v-590
		l-22-4c-13-3-212-19-443-36c-231-18-445-38-475-45s-56-13-56-12c-1,1-54,135-118,297l-116,296v342v342h615h615V5170z M7990,5230
		c0-416-3-532-12-535c-14-4-1155-95-1198-95h-25l3,580l2,580h615h615V5230z M9470,5286v-474l-57-6c-32-3-294-24-583-46
		s-540-42-557-44l-33-5v525v524h615h615V5286z M10950,5345v-415l-22-4c-13-3-266-23-563-46s-564-44-592-47l-53-6v467v466h615h615
		V5345z M11905,5728c-3-18-21-166-40-328c-20-162-39-320-43-350l-7-55l-260-22c-143-12-279-22-302-22l-43-1v405v405h350h351
		L11905,5728z M4464,1112c269-126,337-464,135-677c-201-212-557-164-693,95c-125,238,2,530,263,606c28,8,81,12,137,10
		C4384,1143,4408,1138,4464,1112z M11381,1130c157-53,261-174,291-340c32-169-68-362-227-441c-222-109-484-21-588,198
		c-30,64-32,75-32,178s2,114,31,176c54,114,134,185,253,226C11195,1156,11298,1157,11381,1130z"/>
	<path class="st0" d="M4203,934c-158-56-201-280-74-387c146-122,371-35,388,150C4533,868,4368,992,4203,934z"/>
	<path class="st0" d="M11164,933c-52-23-73-39-106-83c-83-110-42-271,83-334c157-78,339,29,339,199c0,54-28,125-63,163
		C11360,940,11241,965,11164,933z"/>
</g>
</svg>
